<svg xmlns="http://www.w3.org/2000/svg" width="560" height="480" fill="none" viewBox="0 0 560 480" aria-hidden="true">
  <defs>
    <linearGradient id="g1" x1="0" y1="0" x2="1" y2="1">
      <stop offset="0%" stop-color="#2dd4bf" stop-opacity="0.35"/>
      <stop offset="55%" stop-color="#22d3ee" stop-opacity="0.2"/>
      <stop offset="100%" stop-color="#6366f1" stop-opacity="0.15"/>
    </linearGradient>
    <linearGradient id="g2" x1="1" y1="0" x2="0" y2="1">
      <stop offset="0%" stop-color="#14b8a6" stop-opacity="0.5"/>
      <stop offset="100%" stop-color="#06b6d4" stop-opacity="0.1"/>
    </linearGradient>
    <filter id="blur" x="-20%" y="-20%" width="140%" height="140%">
      <feGaussianBlur stdDeviation="24" result="b"/>
      <feMerge><feMergeNode in="b"/><feMergeNode in="SourceGraphic"/></feMerge>
    </filter>
  </defs>
  <rect width="560" height="480" rx="32" fill="url(#g1)" opacity="0.6"/>
  <path fill="url(#g2)" d="M320 40h200v400H320z" opacity="0.25" transform="skewY(-4)"/>
  <g stroke="#94a3b8" stroke-opacity="0.25" stroke-width="1.25" filter="url(#blur)">
    <path d="M40 320c80-40 120-120 200-140s160 60 240 20"/>
    <path d="M60 360c100-20 140-100 220-110s140 80 220 50"/>
    <path d="M80 200c60 40 100-20 160-30s120 80 180 40"/>
  </g>
  <g stroke="#2dd4bf" stroke-opacity="0.45" stroke-width="2" stroke-linecap="round">
    <path d="M48 140h180M48 168h220M48 196h140"/>
    <circle cx="420" cy="120" r="6" fill="#2dd4bf" fill-opacity="0.6"/>
    <circle cx="460" cy="200" r="4" fill="#22d3ee" fill-opacity="0.5"/>
    <circle cx="380" cy="260" r="5" fill="#5eead4" fill-opacity="0.4"/>
  </g>
  <rect x="48" y="240" width="200" height="120" rx="12" stroke="#2dd4bf" stroke-opacity="0.35" fill="rgba(15,23,42,0.4)"/>
  <rect x="64" y="256" width="168" height="10" rx="3" fill="#334155" fill-opacity="0.6"/>
  <rect x="64" y="276" width="120" height="10" rx="3" fill="#14b8a6" fill-opacity="0.35"/>
  <rect x="64" y="296" width="90" height="10" rx="3" fill="#334155" fill-opacity="0.45"/>
</svg>
